<?xml version="1.0" encoding="utf-8"?>
<!-- Generator: Adobe Illustrator 18.0.0, SVG Export Plug-In . SVG Version: 6.00 Build 0)  -->
<!DOCTYPE svg PUBLIC "-//W3C//DTD SVG 1.1//EN" "http://www.w3.org/Graphics/SVG/1.1/DTD/svg11.dtd">
<svg version="1.1" id="Layer_1" xmlns="http://www.w3.org/2000/svg" xmlns:xlink="http://www.w3.org/1999/xlink" x="0px" y="0px"
	 viewBox="0 0 70.3 49.1" enable-background="new 0 0 70.3 49.1" xml:space="preserve">
<g>
	<g>
		<g>
			<path fill="#FFFFFF" d="M34.4,49.1c-7.7,0-15.7-2-22.9-5.7c-5-2.6-13.1-8.9-11.3-15.9c1.1-4.3,5-6.1,10.6-5l0.9,0.2
				c2.6,0.6,5.8,1.2,9.6,1.2l0,0c2.6,0,5.2-0.3,7.7-1c4.3-1.2,7.9-4.1,11.4-6.9c4.1-3.2,7.9-6.3,12.4-6.3c5.9,0,11.3,4,13.9,10.1
				c2.5,6,1.4,12.3-2.8,16.5c-7.1,7.8-16.7,12.3-27.7,12.7C35.6,49.1,35,49.1,34.4,49.1z M7.7,26.2c-2.6,0-3.3,1.2-3.6,2.3
				c-1,4,4.8,9,9.2,11.3c7.2,3.7,15.1,5.6,22.7,5.3c10-0.4,18.6-4.4,25-11.5c3.1-3.2,3.9-7.7,2-12.2c-1.9-4.6-5.9-7.6-10.2-7.6
				c-3.1,0-6.2,2.5-9.9,5.4c-3.6,2.9-7.8,6.2-12.9,7.6c-2.8,0.8-5.8,1.2-8.7,1.2l0,0c-4.2,0-7.8-0.8-10.4-1.3l-0.9-0.2
				C9.2,26.3,8.4,26.2,7.7,26.2z"/>
			<path fill-rule="evenodd" clip-rule="evenodd" fill="#FFFFFF" d="M65.4,0c7.7,4.5,5.4,15.9-0.1,21.4l-4-6.1
				c3.9-3.9,5.2-8.6,1.3-12.5L65.4,0z"/>
		</g>
		<path fill-rule="evenodd" clip-rule="evenodd" fill="#FFFFFF" d="M50.2,13.3c1.4-1.1,2.9-0.8,4.6-1.2c2.1-0.5,4.2-0.1,6.1,0.8
			l3.6,3.1c0.8,1.2,1.5,2.6,1.8,4.1c0.9,4,1.5,8.2-1.2,11.2l0-0.1l0.1-0.2l0-0.1l0-0.1l0-0.1l0-0.1l0-0.1c0.2-0.8-1.8-2.3-1.7-3.1
			c-0.4,0-0.8,0-1.3-0.1c-1.5-0.4-2.5-1.7-2.7-3.2c-0.5,0-1,0-1.5-0.2c-2.4-0.7-3.9-3.1-3.4-5.6l-0.3-0.1c-1.8-0.5-3-3.4-2.7-5.2
			L50.2,13.3z"/>
	</g>
	<path fill-rule="evenodd" clip-rule="evenodd" fill="#FFFFFF" d="M48.8,19c-3.5,4.1-5,5.5-9.2,7.9c4.5-0.1,9-1.8,11.1-4.5L48.8,19z
		"/>
</g>
</svg>
