<?xml version="1.0" encoding="utf-8"?>
<!-- Generator: Adobe Illustrator 18.0.0, SVG Export Plug-In . SVG Version: 6.00 Build 0)  -->
<!DOCTYPE svg PUBLIC "-//W3C//DTD SVG 1.1//EN" "http://www.w3.org/Graphics/SVG/1.1/DTD/svg11.dtd">
<svg version="1.1" id="Layer_1" xmlns="http://www.w3.org/2000/svg" xmlns:xlink="http://www.w3.org/1999/xlink" x="0px" y="0px"
	 viewBox="0 0 87.9 99.8" enable-background="new 0 0 87.9 99.8" xml:space="preserve">
<g>
	<path fill="#FFFFFF" d="M43.9,99.8c-6.2,0-12.2-2.2-16.9-6.1c-1.2,0.2-2.5,0.3-3.7,0.3c0,0,0,0,0,0C10.9,94,3,84.8,0.7,75.6
		c-2.7-10.9,2-21.3,12-26.5c5.7-3.7,19.7-12.7,25.7-25.5l0.8-1.7h9.5l0.8,1.7c6,12.8,19.9,21.8,25.9,25.7
		c9.7,5.1,14.4,15.5,11.7,26.4C84.9,84.8,77,94,64.5,94c-1.2,0-2.4-0.1-3.7-0.3C56.1,97.7,50.2,99.8,43.9,99.8z M28.8,87.3l1.1,1
		c7.6,7.1,20.4,7.1,28,0l1.1-1l1.5,0.3c11.3,2.3,18.8-5.6,20.8-13.4c1.6-6.5,0.1-15.1-9-19.8C66.1,50.3,52,41.2,45,27.8h-2
		c-7.1,13.4-21.1,22.5-27.2,26.4c-9.3,4.9-10.8,13.5-9.2,20C8.5,82,16,89.9,27.3,87.6L28.8,87.3z"/>
	<path fill-rule="evenodd" clip-rule="evenodd" fill="#FFFFFF" d="M61.8,91.2C57,96,50.5,98.7,43.6,98.8h-0.2v-4.6
		c5.3,0,11.2-2.8,14.9-6.4c4-4,6.2-9.3,6.2-14.9C67.2,82.8,65.6,87.4,61.8,91.2z"/>
	<path fill-rule="evenodd" clip-rule="evenodd" fill="#FFFFFF" d="M26,91.4c-11.6-9.6-7.2-30.1,3.5-33.3c-8.2,8.2-6.8,23.1,1.4,31.3
		L26,91.4z"/>
	<path fill-rule="evenodd" clip-rule="evenodd" fill="#FFFFFF" d="M47,24.8c2.4,12.8,5.8,24.6,12.6,34.6
		C44.1,47.5,43.1,34,41.7,24.8H47z"/>
	<path fill-rule="evenodd" clip-rule="evenodd" fill="#FFFFFF" d="M40.8,27.1c-1.6,8.4-4.2,16.2-9.8,22.7
		c12.1-6.9,14.6-11.9,14.6-22.7H40.8z"/>
	<g>
		<path fill-rule="evenodd" clip-rule="evenodd" fill="#FFFFFF" d="M48.9,26.2c-0.9-10,3.1-18.6,9.1-26.2
			C44.3,9.1,43.5,19.5,42.2,26.4L48.9,26.2z"/>
		<path fill-rule="evenodd" clip-rule="evenodd" fill="#FFFFFF" d="M38.7,24.7c0.6-7.3-0.9-12.6-5.3-18.1
			c10,6.6,10.7,14.2,11.6,19.3L38.7,24.7z"/>
		<path fill-rule="evenodd" clip-rule="evenodd" fill="#FFFFFF" d="M48.9,26.2c-4.5-10-3.7-18.6-0.4-26.2
			C38,9.1,40.9,19.5,42.2,26.4L48.9,26.2z"/>
	</g>
</g>
</svg>
